<svg width="64" height="64" viewBox="0 0 64 64" fill="none" xmlns="http://www.w3.org/2000/svg">
  <!-- Minimal Outline: Transparent floating glyph -->
  <path d="M 17 15 C 13 15 11 18 11 23 C 11 27 9 30 6.5 32 C 9 34 11 37 11 41 C 11 46 13 49 17 49" stroke="#38BDF8" stroke-width="3.6" stroke-linecap="round" stroke-linejoin="round" fill="none"/>
  <rect x="19" y="17" width="16" height="6" rx="3" fill="#38BDF8"/>
  <path d="M 35 20 L 38 20 L 38 29 L 40 29" stroke="#94A3B8" stroke-width="1.8" stroke-opacity="0.8" stroke-linecap="round" stroke-linejoin="round" fill="none"/>
  <rect x="27" y="28" width="18" height="6" rx="3" fill="#3B82F6"/>
  <rect x="19" y="39" width="13" height="6" rx="3" fill="#10B981"/>
  <rect x="38.5" y="39" width="6" height="6" rx="1.2" transform="rotate(45 41.5 42)" fill="#F59E0B"/>
  <path d="M 47 15 C 51 15 53 18 53 23 C 53 27 55 30 57.5 32 C 55 34 53 37 53 41 C 53 46 51 49 47 49" stroke="#38BDF8" stroke-width="3.6" stroke-linecap="round" stroke-linejoin="round" fill="none"/>
</svg>
